<?xml version="1.0" encoding="UTF-8" standalone="no"?>
<!DOCTYPE svg PUBLIC "-//W3C//DTD SVG 1.1//EN" "http://www.w3.org/Graphics/SVG/1.1/DTD/svg11.dtd">
<svg xmlns:xlink="http://www.w3.org/1999/xlink" height="680px" version="1.1" viewBox="0 0 992 680" width="992px" x="0px" y="0px" xmlns="http://www.w3.org/2000/svg">
  <defs>
    <clipPath id="clip1130450944">
      <rect height="680" width="992" x="385" y="504"/>
    </clipPath>
  </defs>
  <g clip-path="url(#clip1130450944)" transform="translate(-385 -504)">
    <rect height="680" style="fill:rgb(255,255,255);stroke:none;" width="992" x="385" y="504"/>
    <rect height="1540" style="fill:rgb(255,255,255);stroke:none;" width="1844" x="0" y="0"/>
    <line style="fill:none;stroke:rgb(0,0,0);stroke-miterlimit:10;stroke-linecap:square;" x1="943" x2="973" y1="954" y2="988"/>
    <line style="fill:none;stroke:rgb(0,0,0);stroke-miterlimit:10;stroke-linecap:square;" x1="943" x2="965" y1="954" y2="996"/>
    <line style="fill:none;stroke:rgb(0,0,0);stroke-miterlimit:10;stroke-linecap:square;" x1="896" x2="943" y1="885" y2="954"/>
    <line style="fill:none;stroke:rgb(0,0,0);stroke-miterlimit:10;stroke-linecap:square;" x1="893" x2="896" y1="874" y2="885"/>
    <line style="fill:none;stroke:rgb(0,0,0);stroke-miterlimit:10;stroke-linecap:square;" x1="868" x2="893" y1="861" y2="874"/>
    <line style="fill:none;stroke:rgb(0,0,0);stroke-miterlimit:10;stroke-linecap:square;" x1="852" x2="868" y1="857" y2="861"/>
    <line style="fill:none;stroke:rgb(0,0,0);stroke-miterlimit:10;stroke-linecap:square;" x1="817" x2="852" y1="859" y2="857"/>
    <line style="fill:none;stroke:rgb(0,0,0);stroke-miterlimit:10;stroke-linecap:square;" x1="817" x2="645" y1="859" y2="608"/>
    <line style="fill:none;stroke:rgb(0,0,0);stroke-miterlimit:10;stroke-linecap:square;" x1="750" x2="817" y1="869" y2="859"/>
    <line style="fill:none;stroke:rgb(0,0,0);stroke-miterlimit:10;stroke-linecap:square;" x1="901" x2="893" y1="872" y2="874"/>
    <line style="fill:none;stroke:rgb(0,0,0);stroke-miterlimit:10;stroke-linecap:square;" x1="729" x2="750" y1="867" y2="869"/>
    <line style="fill:none;stroke:rgb(0,0,0);stroke-miterlimit:10;stroke-linecap:square;" x1="729" x2="692" y1="867" y2="835"/>
    <line style="fill:none;stroke:rgb(0,0,0);stroke-miterlimit:10;stroke-linecap:square;" x1="693" x2="729" y1="869" y2="867"/>
    <line style="fill:none;stroke:rgb(0,0,0);stroke-miterlimit:10;stroke-linecap:square;" x1="693" x2="659" y1="869" y2="852"/>
    <line style="fill:none;stroke:rgb(0,0,0);stroke-miterlimit:10;stroke-linecap:square;" x1="912" x2="901" y1="867" y2="872"/>
    <line style="fill:none;stroke:rgb(0,0,0);stroke-miterlimit:10;stroke-linecap:square;" x1="687" x2="693" y1="870" y2="869"/>
    <line style="fill:none;stroke:rgb(0,0,0);stroke-miterlimit:10;stroke-linecap:square;" x1="687" x2="687" y1="870" y2="870"/>
    <line style="fill:none;stroke:rgb(0,0,0);stroke-miterlimit:10;stroke-linecap:square;" x1="896" x2="896" y1="892" y2="885"/>
    <line style="fill:none;stroke:rgb(0,0,0);stroke-miterlimit:10;stroke-linecap:square;" x1="896" x2="883" y1="892" y2="936"/>
    <line style="fill:none;stroke:rgb(0,0,0);stroke-miterlimit:10;stroke-linecap:square;" x1="644" x2="687" y1="871" y2="870"/>
    <line style="fill:none;stroke:rgb(0,0,0);stroke-miterlimit:10;stroke-linecap:square;" x1="644" x2="598" y1="871" y2="861"/>
    <line style="fill:none;stroke:rgb(0,0,0);stroke-miterlimit:10;stroke-linecap:square;" x1="922" x2="912" y1="860" y2="867"/>
    <line style="fill:none;stroke:rgb(0,0,0);stroke-miterlimit:10;stroke-linecap:square;" x1="922" x2="1129" y1="860" y2="770"/>
    <line style="fill:none;stroke:rgb(0,0,0);stroke-miterlimit:10;stroke-linecap:square;" x1="898" x2="896" y1="913" y2="892"/>
    <line style="fill:none;stroke:rgb(0,0,0);stroke-miterlimit:10;stroke-linecap:square;" x1="898" x2="937" y1="913" y2="1086"/>
    <line style="fill:none;stroke:rgb(0,0,0);stroke-miterlimit:10;stroke-linecap:square;" x1="898" x2="894" y1="913" y2="1046"/>
    <line style="fill:none;stroke:rgb(0,0,0);stroke-miterlimit:10;stroke-linecap:square;" x1="740" x2="750" y1="882" y2="869"/>
    <line style="fill:none;stroke:rgb(0,0,0);stroke-miterlimit:10;stroke-linecap:square;" x1="740" x2="730" y1="882" y2="898"/>
    <line style="fill:none;stroke:rgb(0,0,0);stroke-miterlimit:10;stroke-linecap:square;" x1="740" x2="739" y1="882" y2="921"/>
    <line style="fill:none;stroke:rgb(0,0,0);stroke-miterlimit:10;stroke-linecap:square;" x1="526" x2="644" y1="890" y2="871"/>
    <line style="fill:none;stroke:rgb(0,0,0);stroke-miterlimit:10;stroke-linecap:square;" x1="526" x2="526" y1="890" y2="890"/>
    <line style="fill:none;stroke:rgb(0,0,0);stroke-miterlimit:10;stroke-linecap:square;" x1="526" x2="526" y1="890" y2="890"/>
    <line style="fill:none;stroke:rgb(0,0,0);stroke-miterlimit:10;stroke-linecap:square;" x1="847" x2="852" y1="835" y2="857"/>
    <line style="fill:none;stroke:rgb(0,0,0);stroke-miterlimit:10;stroke-linecap:square;" x1="847" x2="863" y1="835" y2="823"/>
    <line style="fill:none;stroke:rgb(0,0,0);stroke-miterlimit:10;stroke-linecap:square;" x1="847" x2="833" y1="835" y2="694"/>
    <line style="fill:none;stroke:rgb(0,0,0);stroke-miterlimit:10;stroke-linecap:square;" x1="849" x2="868" y1="963" y2="861"/>
    <line style="fill:none;stroke:rgb(0,0,0);stroke-miterlimit:10;stroke-linecap:square;" x1="849" x2="753" y1="963" y2="1045"/>
    <line style="fill:none;stroke:rgb(0,0,0);stroke-miterlimit:10;stroke-linecap:square;" x1="849" x2="820" y1="963" y2="1037"/>
    <line style="fill:none;stroke:rgb(0,0,0);stroke-miterlimit:10;stroke-linecap:square;" x1="942" x2="922" y1="840" y2="860"/>
    <line style="fill:none;stroke:rgb(0,0,0);stroke-miterlimit:10;stroke-linecap:square;" x1="942" x2="993" y1="840" y2="773"/>
    <line style="fill:none;stroke:rgb(0,0,0);stroke-miterlimit:10;stroke-linecap:square;" x1="942" x2="1021" y1="840" y2="778"/>
    <line style="fill:none;stroke:rgb(0,0,0);stroke-miterlimit:10;stroke-linecap:square;" x1="927" x2="912" y1="867" y2="867"/>
    <line style="fill:none;stroke:rgb(0,0,0);stroke-miterlimit:10;stroke-linecap:square;" x1="927" x2="1203" y1="867" y2="822"/>
    <line style="fill:none;stroke:rgb(0,0,0);stroke-miterlimit:10;stroke-linecap:square;" x1="927" x2="1044" y1="867" y2="878"/>
    <line style="fill:none;stroke:rgb(0,0,0);stroke-miterlimit:10;stroke-linecap:square;" x1="908" x2="901" y1="876" y2="872"/>
    <line style="fill:none;stroke:rgb(0,0,0);stroke-miterlimit:10;stroke-linecap:square;" x1="908" x2="1013" y1="876" y2="913"/>
    <line style="fill:none;stroke:rgb(0,0,0);stroke-miterlimit:10;stroke-linecap:square;" x1="908" x2="1132" y1="876" y2="1027"/>
    <text style="fill:rgb(0,0,0);stroke:none;font-size:10px;" x="978" y="998">Aotea</text>
    <text style="fill:rgb(0,0,0);stroke:none;font-size:10px;" x="935" y="1013">Kaikura_Island</text>
    <text style="fill:rgb(0,0,0);stroke:none;font-size:10px;" x="907" y="1109">Motukawanui</text>
    <text style="fill:rgb(0,0,0);stroke:none;font-size:10px;" x="847" y="1062">Slipper_Island</text>
    <text style="fill:rgb(0,0,0);stroke:none;font-size:10px;" x="856" y="950">Rakiura</text>
    <text style="fill:rgb(0,0,0);stroke:none;font-size:10px;" x="699" y="910">Borneo</text>
    <text style="fill:rgb(0,0,0);stroke:none;font-size:10px;" x="710" y="944">New_Britain</text>
    <text style="fill:rgb(0,0,0);stroke:none;font-size:10px;" x="647" y="888">Halmahera</text>
    <text style="fill:rgb(0,0,0);stroke:none;font-size:10px;" x="470" y="898">Mainland</text>
    <text style="fill:rgb(0,0,0);stroke:none;font-size:10px;" x="520" y="913">Normanby_Island</text>
    <text style="fill:rgb(0,0,0);stroke:none;font-size:10px;" x="530" y="864">New_Guinea</text>
    <text style="fill:rgb(0,0,0);stroke:none;font-size:10px;" x="609" y="852">Malenge</text>
    <text style="fill:rgb(0,0,0);stroke:none;font-size:10px;" x="647" y="833">Sulawesi</text>
    <text style="fill:rgb(0,0,0);stroke:none;font-size:10px;" x="617" y="598">Kayangel</text>
    <text style="fill:rgb(0,0,0);stroke:none;font-size:10px;" x="873" y="822">Late_Island</text>
    <text style="fill:rgb(0,0,0);stroke:none;font-size:10px;" x="802" y="678">Wake_Island</text>
    <text style="fill:rgb(0,0,0);stroke:none;font-size:10px;" x="672" y="1057">Doubtful_Sound</text>
    <text style="fill:rgb(0,0,0);stroke:none;font-size:10px;" x="764" y="1049">Great_Mercury_Island</text>
    <text style="fill:rgb(0,0,0);stroke:none;font-size:10px;" x="981" y="765">Hatutaa</text>
    <text style="fill:rgb(0,0,0);stroke:none;font-size:10px;" x="1030" y="777">Mohotani</text>
    <text style="fill:rgb(0,0,0);stroke:none;font-size:10px;" x="1138" y="769">Kamaka</text>
    <text style="fill:rgb(0,0,0);stroke:none;font-size:10px;" x="1215" y="826">Honuea</text>
    <text style="fill:rgb(0,0,0);stroke:none;font-size:10px;" x="1054" y="883">Reiono</text>
    <text style="fill:rgb(0,0,0);stroke:none;font-size:10px;" x="1019" y="923">Rimatuu</text>
    <text style="fill:rgb(0,0,0);stroke:none;font-size:10px;" x="1142" y="1040">Tahanea</text>
    <line style="fill:none;stroke:rgb(128,128,128);stroke-miterlimit:10;stroke-linecap:square;" x1="405" x2="482" y1="524" y2="524"/>
    <line style="fill:none;stroke:rgb(128,128,128);stroke-miterlimit:10;stroke-linecap:square;" x1="405" x2="405" y1="521" y2="527"/>
    <line style="fill:none;stroke:rgb(128,128,128);stroke-miterlimit:10;stroke-linecap:square;" x1="482" x2="482" y1="521" y2="527"/>
    <text style="fill:rgb(128,128,128);stroke:none;font-family:&quot;Helvetica&quot;;font-size:10px;font-style:italic;" x="484" y="530">0.1</text>
  </g>
</svg>
